<svg xmlns="http://www.w3.org/2000/svg" viewBox="0 0 22.26 22.25"><defs><style>.cls-1{fill:none;stroke:#676b71;stroke-miterlimit:10;}.cls-2{fill:#676b71;}</style></defs><title>add</title><g id="Layer_2" data-name="Layer 2"><g id="Layer_1-2" data-name="Layer 1"><path class="cls-1" d="M11.13.5A10.63,10.63,0,1,0,21.76,11.12,10.62,10.62,0,0,0,11.13.5Z"/><path class="cls-2" d="M16.47,11.31a.67.67,0,0,1-.68.52H12.37a2.71,2.71,0,0,1-.4,0c-.14,0-.18,0-.18.19,0,1,0,1.92,0,2.88,0,.34,0,.69,0,1a.62.62,0,0,1-.5.58.69.69,0,0,1-.73-.32,1,1,0,0,1-.09-.44c0-1.24,0-2.47,0-3.71,0-.18-.05-.21-.22-.21H6.46A.67.67,0,0,1,6,10.65a.66.66,0,0,1,.45-.15h1.9c.63,0,1.26,0,1.89,0,.18,0,.21-.06.21-.22,0-1.25,0-2.5,0-3.75a.66.66,0,0,1,.74-.72.64.64,0,0,1,.58.55,1.42,1.42,0,0,1,0,.29c0,1.2,0,2.4,0,3.61,0,.17,0,.24.23.24,1.26,0,2.52,0,3.77,0A.66.66,0,0,1,16.47,11.31Z"/></g></g></svg>