<?xml version="1.0" encoding="utf-8"?>
<!-- Generator: Adobe Illustrator 23.0.3, SVG Export Plug-In . SVG Version: 6.00 Build 0)  -->
<svg version="1.1" id="Capa_1" xmlns="http://www.w3.org/2000/svg" xmlns:xlink="http://www.w3.org/1999/xlink" x="0px" y="0px"
	 viewBox="0 0 39 39" style="enable-background:new 0 0 39 39;" xml:space="preserve">
<style type="text/css">
	.st0{opacity:0.2;fill:#676B70;}
</style>
<path class="st0" d="M19,6.4c-7.6,0-13.8,6.2-13.8,13.8C5.2,27.8,11.4,34,19,34c7.6,0,13.8-6.2,13.8-13.8C32.8,12.6,26.6,6.4,19,6.4
	z M24.2,16.4C24.2,16.4,24.2,16.4,24.2,16.4c0,0.3-0.2,0.5-0.4,0.7c-1,1-1.9,1.9-2.9,2.9c0,0,0,0-0.1,0.1c-0.1,0.1-0.1,0.1,0,0.2
	l1.9,1.9c0.3,0.3,0.7,0.7,1,1c0.2,0.2,0.4,0.5,0.4,0.8v0.4c0,0,0,0,0,0.1c-0.1,0.4-0.3,0.7-0.7,0.9c-0.2,0.1-0.4,0.1-0.6,0.1
	c-0.3,0-0.6-0.2-0.8-0.4c-1-1-1.9-1.9-2.9-2.9C19,22,19,22,18.9,22.1c-1,1-2,2-3,3c-0.2,0.1-0.3,0.3-0.5,0.3c-0.2,0-0.5,0-0.7,0
	c-0.3,0-0.4-0.2-0.6-0.4c-0.3-0.3-0.3-0.6-0.3-0.9c0-0.3,0.2-0.6,0.4-0.8c1-1,1.9-1.9,2.9-2.9l0.1-0.1c0-0.1,0-0.1,0-0.1
	c0,0,0,0-0.1-0.1l-2.9-2.9C14.1,17.1,14,17,14,16.9c-0.2-0.3-0.2-0.5-0.2-0.8c0-0.4,0.2-0.7,0.6-0.9c0.1-0.1,0.2-0.1,0.3-0.1
	c0,0,0.1,0,0.1,0h0.4c0.1,0,0.2,0,0.4,0.1c0.1,0.1,0.2,0.2,0.4,0.3c1,1,2,2,2.9,3c0.1,0.2,0.1,0.2,0.3,0c1-1,1.9-2,2.9-2.9
	c0,0,0.1-0.1,0.1-0.1c0.2-0.1,0.3-0.2,0.5-0.2c0,0,0,0,0.1,0h0.4c0.2,0,0.3,0,0.5,0.1c0.2,0.1,0.3,0.3,0.4,0.5
	c0.1,0.1,0,0.2,0.1,0.3V16.4z"/>
</svg>
