<?xml version="1.0" encoding="utf-8"?>
<!-- Generator: Adobe Illustrator 23.0.3, SVG Export Plug-In . SVG Version: 6.00 Build 0)  -->
<svg version="1.1" id="Capa_1" xmlns="http://www.w3.org/2000/svg" xmlns:xlink="http://www.w3.org/1999/xlink" x="0px" y="0px"
	 viewBox="0 0 589.6 589.6" style="enable-background:new 0 0 589.6 589.6;" xml:space="preserve">
<style type="text/css">
	.st0{fill:none;stroke:#676B71;stroke-width:40;stroke-miterlimit:10;}
	.st1{fill:#676B71;stroke:#676B71;stroke-width:12;stroke-miterlimit:10;}
</style>
<g>
	<path class="st0" d="M478.5,120.1c-99-98.7-259.3-98.4-357.9,0.6S22.2,380,121.3,478.7S380.5,577,479.2,478
		c0.1-0.1,0.1-0.1,0.2-0.2c98.6-98.9,98.3-259-0.6-357.6C478.7,120.2,478.6,120.1,478.5,120.1z"/>
	<path class="st1" d="M386.9,392.2c-6.5,4.1-15,3-20.2-2.7L309.1,332c-2.4-2.1-4.7-4.3-6.7-6.7c-2.4-2.4-3-3-6.2,0.2
		c-16.8,16.9-32.3,32.4-48.4,48.6c-5.7,5.7-11.6,11.6-16.8,16.9c-5,4.6-12.5,5.2-18.2,1.4c-5.8-3.8-8.6-10.9-6.9-17.7
		c1.3-3.4,3.3-6.4,5.9-8.9c20.8-20.9,41.5-41.7,62.3-62.6c3-3,2.7-4.4-0.2-7.2l-63.9-63.7c-6.2-6.3-6.1-16.4,0.2-22.6
		c3-3,7.1-4.6,11.4-4.6c3.9,0.4,7.5,2.2,10.1,5l32,31.9c10.6,10.6,21.3,21.2,31.9,31.8c3,3,4.6,2.5,7.2-0.2c21-21.1,42-42.2,63-63.3
		c5.5-6.7,15.4-7.7,22.1-2.2c0.9,0.7,1.7,1.6,2.5,2.5c4.6,5.4,4.8,13.3,0.5,19c-1.5,1.8-3.1,3.4-4.9,4.9
		c-20.2,20.2-40.3,40.5-60.7,60.9c-2.9,2.9-4,4-0.2,7.9c21.3,21.2,42.5,42.4,63.6,63.4c6.7,5.6,7.6,15.5,2,22.1
		C389.7,390.2,388.4,391.3,386.9,392.2z"/>
</g>
</svg>
