<?xml version="1.0" encoding="utf-8"?>
<!-- Generator: Adobe Illustrator 23.0.3, SVG Export Plug-In . SVG Version: 6.00 Build 0)  -->
<svg version="1.1" id="Layer_1" xmlns="http://www.w3.org/2000/svg" xmlns:xlink="http://www.w3.org/1999/xlink" x="0px" y="0px"
	 viewBox="0 0 3.8 4.6" style="enable-background:new 0 0 3.8 4.6;" xml:space="preserve">
<style type="text/css">
	.st0{fill:#676B71;}
</style>
<g>
	<g id="Layer_1-2">
		<path class="st0" d="M2.7,4.6H1.1C1.1,4.6,1,4.5,1,4.5c0-0.1,0.1-0.1,0.1-0.1h1.5c0.1,0,0.1,0,0.1,0.1c0,0,0,0,0,0
			C2.8,4.5,2.7,4.6,2.7,4.6z"/>
		<path class="st0" d="M1.9,4.6c-0.1,0-0.1-0.1-0.1-0.1V3.3c0-0.1,0.1-0.1,0.1-0.1C2,3.2,2,3.2,2,3.3l0,0v1.1C2,4.5,2,4.6,1.9,4.6z"
			/>
		<path class="st0" d="M1.9,0L1.9,0c0.4,0,0.8,0.3,0.8,0.8v1.3c0,0.4-0.3,0.8-0.7,0.8h0c-0.4,0-0.8-0.3-0.8-0.8V0.7
			C1.1,0.3,1.5,0,1.9,0z"/>
		<path class="st0" d="M1.9,3.4L1.9,3.4C1.6,3.4,1.2,3.2,1,3C0.7,2.8,0.6,2.4,0.6,2.1c0-0.1,0.1-0.1,0.1-0.1S0.9,2,0.9,2.1
			c0,0.3,0.1,0.5,0.3,0.7C1.4,3,1.6,3.1,1.9,3.1l0,0c0.3,0,0.5-0.1,0.7-0.3c0.2-0.2,0.3-0.4,0.3-0.7C2.9,2,3,1.9,3,1.9c0,0,0,0,0,0
			c0.1,0,0.1,0.1,0.1,0.1l0,0C3.2,2.8,2.6,3.4,1.9,3.4L1.9,3.4L1.9,3.4z"/>
	</g>
</g>
</svg>
