<?xml version="1.0" encoding="utf-8"?>
<!-- Generator: Adobe Illustrator 23.0.3, SVG Export Plug-In . SVG Version: 6.00 Build 0)  -->
<svg version="1.1" id="Capa_1" xmlns="http://www.w3.org/2000/svg" xmlns:xlink="http://www.w3.org/1999/xlink" x="0px" y="0px"
	 viewBox="0 0 589.6 589.6" style="enable-background:new 0 0 589.6 589.6;" xml:space="preserve">
<style type="text/css">
	.st0{fill:#3F4A5B;}
</style>
<g>
	<path class="st0" d="M568.2,72.5l-45,430.5c-1.5,14.7-13.6,25.7-27.9,26.6l-5.5-120.1l13,1.4l35.7-341.5L160,29.9l-5,47.9
		l-30.2,1.4l5.5-52.4c1.7-16.4,16.4-28.3,32.8-26.6l378.6,39.6C558.1,41.5,570,56.1,568.2,72.5z M461.1,108.5L481,540.9
		c0.8,16.5-12,30.4-28.5,31.2L72.3,589.6c-16.5,0.8-30.4-12-31.2-28.5L21.2,128.7c-0.8-16.5,12-30.4,28.5-31.2l380.2-17.5
		C446.4,79.3,460.4,92.1,461.1,108.5z M66.8,470.3L447,452.9l-15.7-343L51.1,127.3L66.8,470.3z M427.4,350.6
		c-0.5-10.6-4.7-20.6-11.9-28.4l-26.7-28.8c-9.3-8.9-24.1-8.2-32.5,1.5l-48.4,56L202.8,221.5c-9-11.2-26.1-11.1-35,0.3L85.7,329.9
		c-6.3,8.4-9.5,18.7-9.1,29.1l4.4,95.6l350.4-16.1L427.4,350.6z M365.9,232.4c22.7-1,40.2-20.2,39.1-42.9
		c-1-22.7-20.2-40.2-42.9-39.1c-22.7,1-40.2,20.2-39.1,42.9C324.1,216,343.3,233.5,365.9,232.4z"/>
</g>
</svg>
