<svg xmlns="http://www.w3.org/2000/svg" xmlns:xlink="http://www.w3.org/1999/xlink" viewBox="0 0 1293.6 624">
  <defs>
    <style>
      .cls-1 {
        isolation: isolate;
      }

      .cls-2 {
        fill: #fff;
      }

      .cls-3 {
        fill: #e0f2f7;
      }

      .cls-4 {
        fill: #c7e8ed;
      }

      .cls-30, .cls-4 {
        opacity: 0.5;
      }

      .cls-5 {
        font-size: 33.24px;
        font-family: OpenSans-Semibold, Open Sans;
        font-weight: 600;
      }

      .cls-22, .cls-5 {
        fill: #133c4f;
      }

      .cls-6 {
        font-size: 12.51px;
        fill: #8f8f8f;
        font-family: OpenSans-Regular, OpenSans Regular;
      }

      .cls-7 {
        letter-spacing: -0.03em;
      }

      .cls-8 {
        letter-spacing: -0.01em;
      }

      .cls-9 {
        letter-spacing: 0em;
      }

      .cls-10 {
        letter-spacing: -0.01em;
      }

      .cls-11 {
        letter-spacing: 0.02em;
      }

      .cls-12 {
        letter-spacing: -0.01em;
      }

      .cls-13 {
        letter-spacing: 0.01em;
      }

      .cls-14 {
        letter-spacing: 0em;
      }

      .cls-15 {
        letter-spacing: 0.02em;
      }

      .cls-16 {
        letter-spacing: -0.01em;
      }

      .cls-17, .cls-30, .cls-35 {
        fill: #71cee6;
      }

      .cls-17, .cls-34 {
        opacity: 0.7;
      }

      .cls-18 {
        opacity: 0.47;
        fill: url(#linear-gradient);
      }

      .cls-19, .cls-38 {
        fill: none;
        stroke-miterlimit: 10;
      }

      .cls-19 {
        stroke: #5a959b;
        stroke-linecap: round;
        stroke-width: 0.5px;
      }

      .cls-20 {
        fill: url(#linear-gradient-2);
      }

      .cls-21 {
        fill: #15415b;
      }

      .cls-23 {
        fill: #1f4a4a;
      }

      .cls-24 {
        fill: #076667;
      }

      .cls-25 {
        opacity: 0.54;
        mix-blend-mode: color-burn;
        fill: url(#Fading_Sky_2);
      }

      .cls-26 {
        fill: #13bfd8;
      }

      .cls-27 {
        fill: url(#linear-gradient-3);
      }

      .cls-28 {
        fill: #76cdd8;
      }

      .cls-29 {
        fill: #2c7478;
      }

      .cls-31 {
        fill: #92d7e6;
      }

      .cls-32 {
        fill: #99d9e7;
      }

      .cls-33 {
        fill: #ee7726;
      }

      .cls-36 {
        fill: #4697a3;
      }

      .cls-37 {
        fill: #fec413;
      }

      .cls-38 {
        stroke: #2c7478;
      }

      .cls-39 {
        fill: #b2e1ea;
      }

      .cls-40 {
        fill: #467b9b;
        opacity: 0.45;
        mix-blend-mode: multiply;
      }

      .cls-41 {
        fill: #acdfeb;
      }

      .cls-42 {
        fill: #ed5f3f;
      }

      .cls-43 {
        fill: #d8d8d8;
      }

      .cls-44 {
        fill: #ffe1bd;
      }

      .cls-45 {
        fill: #3a3b3a;
      }

      .cls-46 {
        fill: #eaeaea;
      }

      .cls-47 {
        fill: #103649;
      }

      .cls-48 {
        fill: #f3f3f3;
      }

      .cls-49 {
        fill: #123d54;
      }

      .cls-50 {
        fill: #09344c;
      }

      .cls-51 {
        fill: #e7c5a0;
      }

      .cls-52 {
        fill: #34a9c3;
      }

      .cls-53 {
        fill: #7ed1e5;
      }

      .cls-54 {
        fill: #a6dde9;
      }

      .cls-55 {
        fill: #5ac9e3;
      }

      .cls-56 {
        fill: #2f95a0;
      }

      .cls-57 {
        fill: #3ea6b8;
      }

      .cls-58 {
        fill: #0e65af;
        opacity: 0.25;
      }
    </style>
    <linearGradient id="linear-gradient" x1="585.4" y1="471.12" x2="509.46" y2="412.75" gradientUnits="userSpaceOnUse">
      <stop offset="0" stop-color="#069ad7"/>
      <stop offset="1" stop-color="#2484c7" stop-opacity="0"/>
    </linearGradient>
    <linearGradient id="linear-gradient-2" x1="1039.99" y1="436.65" x2="1145.21" y2="436.65" xlink:href="#linear-gradient"/>
    <linearGradient id="Fading_Sky_2" data-name="Fading Sky 2" x1="647.37" y1="353.29" x2="1096.49" y2="353.29" gradientUnits="userSpaceOnUse">
      <stop offset="0" stop-color="#2484c7"/>
      <stop offset="1" stop-color="#2484c7" stop-opacity="0"/>
    </linearGradient>
    <linearGradient id="linear-gradient-3" x1="568.87" y1="353.29" x2="1018.01" y2="353.29" xlink:href="#linear-gradient"/>
  </defs>
  <title>Moodle proposal</title>
  <g class="cls-1">
    <g id="Layer_1" data-name="Layer 1">
      <g>
        <rect class="cls-2" x="-5.64" y="-76.82" width="1325.54" height="848.53"/>
        <path class="cls-3" d="M1299.14-110.28V377.57C1011.91,577,816,339.41,805.63,216.36,789.69,26.68,702.48,121.62,617.88,71.89,551,32.58,528.42-39.95,536.17-110.28Z"/>
        <path class="cls-4" d="M502.27-110.28S459.64,43.15,601.08,104.18c93.51,40.35,228-29.61,318.7,8.72s200.68,453.79,379.36,454.36V-110.28Z"/>
      </g>
      <text class="cls-5" transform="translate(148.68 263.25)">Best business apps <tspan x="0" y="39.89">for tasks management</tspan></text>
      <text class="cls-6" transform="translate(153.63 338.61)"><tspan class="cls-7">We work to make your business start effectively working for you.</tspan></text>
      <g>
        <g>
          <path class="cls-17" d="M586.72,505.78c-.06.1-1.16-7.76-13.74-13.53-12.85-6.22-37.62-1-42-8.38C526.28,476,542.24,475.36,548,468s7.62-10.78-2.09-11.13c-9.64-.2-15.42-.06-16.66-7.83s-16-1.54-24.72-6c-8.9-4.43-5.8-12.85,9.35-14.88,14.94-1.63,15.08-4.16,10.43-5.75s-18.18-3.37-13.35-8.29,13.81-2.74,8.61-7.06-16.12-6.34-12-12.69,17.2-8,26.95,5.29C544.14,413,547.21,416.6,554.62,417c7.22.5,12.59-8.11,21.68-6.41s8.74,10.23,4.55,16.48-11.25,18.46-5.2,22.41c5.86,4,10.85-4.15,18.06-6.65,8-2.78,18.5,2.73,12.61,15.27-6.23,12.42-17.17,23.21-13.24,48.93C591,506.59,588.84,506.16,586.72,505.78Z"/>
          <path class="cls-18" d="M586.72,505.78c-.06.1-1.16-7.76-13.74-13.53-12.85-6.22-37.62-1-42-8.38C526.28,476,542.24,475.36,548,468s7.62-10.78-2.09-11.13c-9.64-.2-15.42-.06-16.66-7.83s-16-1.54-24.72-6c-8.9-4.43-5.8-12.85,9.35-14.88,14.94-1.63,15.08-4.16,10.43-5.75s-18.18-3.37-13.35-8.29,13.81-2.74,8.61-7.06-16.12-6.34-12-12.69,17.2-8,26.95,5.29C544.14,413,547.21,416.6,554.62,417c7.22.5,12.59-8.11,21.68-6.41s8.74,10.23,4.55,16.48-11.25,18.46-5.2,22.41c5.86,4,10.85-4.15,18.06-6.65,8-2.78,18.5,2.73,12.61,15.27-6.23,12.42-17.17,23.21-13.24,48.93C591,506.59,588.84,506.16,586.72,505.78Z"/>
          <path class="cls-19" d="M514.67,393.58s40.59,26.15,75.59,112.88"/>
          <path class="cls-19" d="M514.24,415.32s13.15-2.43,25.86,3.09"/>
          <path class="cls-19" d="M557.29,442a175.36,175.36,0,0,1,20-27.2"/>
          <path class="cls-19" d="M508.54,437.11s22.89-4.43,45.24-.43"/>
          <path class="cls-19" d="M539,479.85s23.84-3.92,39.38-.2"/>
          <path class="cls-19" d="M598.29,449.79s-14.15,16.92-17.1,35.73"/>
        </g>
        <g>
          <path class="cls-17" d="M1069.38,498.28c.07.09,0-7.85,11.55-15.45,11.77-8.07,37-6.66,40.3-14.61,3.41-8.52-12.46-6.71-19.27-13.09s-9.15-9.51.39-11.32c9.5-1.64,15.24-2.38,15.3-10.24s15.63-3.95,23.52-9.68c8.13-5.72,3.8-13.57-11.47-13.3-15,.63-15.54-1.85-11.18-4.12s17.46-6.07,11.94-10.2c-5.67-4.19-14.06-.63-9.57-5.68s15-8.7,9.93-14.35-18.21-5.34-25.85,9.29c-7.48,14.58-10,18.64-17.22,20.16-7.07,1.59-13.68-6.12-22.4-3.06s-7.1,11.43-2,17,13.9,16.56,8.51,21.37c-5.18,4.86-11.34-2.46-18.84-3.85-8.33-1.54-17.89,5.49-10.17,17,8,11.34,20.47,20.35,20.46,46.38Q1066.32,499.33,1069.38,498.28Z"/>
          <path class="cls-20" d="M1069.38,498.28c.07.09,0-7.85,11.55-15.45,11.77-8.07,37-6.66,40.3-14.61,3.41-8.52-12.46-6.71-19.27-13.09s-9.15-9.51.39-11.32c9.5-1.64,15.24-2.38,15.3-10.24s15.63-3.95,23.52-9.68c8.13-5.72,3.8-13.57-11.47-13.3-15,.63-15.54-1.85-11.18-4.12s17.46-6.07,11.94-10.2c-5.67-4.19-14.06-.63-9.57-5.68s15-8.7,9.93-14.35-18.21-5.34-25.85,9.29c-7.48,14.58-10,18.64-17.22,20.16-7.07,1.59-13.68-6.12-22.4-3.06s-7.1,11.43-2,17,13.9,16.56,8.51,21.37c-5.18,4.86-11.34-2.46-18.84-3.85-8.33-1.54-17.89,5.49-10.17,17,8,11.34,20.47,20.35,20.46,46.38Q1066.32,499.33,1069.38,498.28Z"/>
          <path class="cls-19" d="M1123.71,376.51s-36.19,32-57.73,123"/>
          <path class="cls-19" d="M1127.41,397.94s-13.37-.43-25.1,6.95"/>
          <path class="cls-19" d="M1088.86,430.76A174.75,174.75,0,0,0,1065,406.89"/>
          <path class="cls-19" d="M1136.32,418.62s-23.29-.93-44.78,6.39"/>
          <path class="cls-19" d="M1112.63,465.46s-24.16-.28-39,5.74"/>
          <path class="cls-19" d="M1049.51,444.67s16.54,14.6,22.29,32.75"/>
        </g>
        <path class="cls-21" d="M605.6,483.06a2.51,2.51,0,0,1,1,.59,7.64,7.64,0,0,0-2-1.72,187,187,0,0,1-12.72-17c-.78-1.21-1.54-2.43-2.29-3.65.78-3.27,4.32-9.92,4.87-11.94,1.13-4.17,2.76-9.39,2.35-13.73-.18-1.81-1.52-6.82-4.16-6.44-3,.43-3.12,8.94-3.12,11,0,4.65.69,9.31.17,13.93a40.27,40.27,0,0,0-.62,6.34,160.56,160.56,0,0,1-9-16.88c.69-3.2,4.35-10.07,4.91-12.13,1.13-4.16,2.76-9.38,2.35-13.73-.17-1.8-1.52-6.82-4.16-6.44-3,.44-3.12,8.95-3.12,11.05,0,4.64.69,9.3.17,13.92a40.85,40.85,0,0,0-.62,6.29,141.63,141.63,0,0,1-7-18.95,133.4,133.4,0,0,1-3.16-13.53c2.19-3,5.57-6.68,6.4-8.1,2.18-3.72,5.12-8.33,5.86-12.64.31-1.79.32-7-2.32-7.3-3-.36-5.36,7.82-5.91,9.84-1.23,4.48-1.77,9.17-3.48,13.48-.3.77-.65,1.54-1,2.31a135.23,135.23,0,0,1-1.7-18.63c1.11-1.08,2.07-2.38,3.09-3.57,2.58-3,5.91-5.29,8.8-8,1.31-1.22,6.56-6.26,5.09-8.38-1.3-1.87-5.22.21-6.44,1.15-3,2.27-5.28,6.33-7.22,9.46-.7,1.13-2,4.78-3.34,7.57,0-2.95,0-5.89.18-8.83a135.68,135.68,0,0,1,1.59-13.92,29,29,0,0,0,3.94-4.32c2.58-3,5.91-5.28,8.81-8,1.3-1.23,6.55-6.26,5.08-8.38-1.3-1.87-5.21.2-6.44,1.14-3,2.27-5.27,6.33-7.22,9.46-.81,1.31-2.49,6-4,8.83A123.63,123.63,0,0,1,574,345.14a42,42,0,0,0,3.25-3.86c2.52-3.06,5.8-5.39,8.65-8.16,1.28-1.24,6.43-6.38,4.92-8.47-1.33-1.84-5.21.3-6.42,1.27-2.91,2.33-5.15,6.43-7,9.59a17.38,17.38,0,0,0-1,2.11q-2.26,4.26-4.1,8.74a.75.75,0,0,1-.24.18,1.82,1.82,0,0,0,.23-.15A108.59,108.59,0,0,0,568,358.87c-.18-1.56-.67-3.12-1-4.67-.83-3.88-.63-7.9-1-11.84-.19-1.79-1-9-3.6-9.12-2.27-.1-3,4.27-3,5.82,0,3.73,1.85,8,3.16,11.47.63,1.65,4.12,6.89,5.12,9.63a109,109,0,0,0-2.48,12.15,31.4,31.4,0,0,0-1.92-5.35c-1.43-3.71-1.84-7.71-2.85-11.55-.45-1.73-2.39-8.74-4.95-8.46-2.26.25-2.3,4.69-2.06,6.22.59,3.68,3.06,7.64,4.89,10.84.93,1.63,5.68,6.77,6.78,9.18-.23,1.67-.44,3.34-.6,5a123.05,123.05,0,0,0-.17,20.94c-.77-.83-1.62-1.62-2.4-2.43-2.74-2.88-4.67-6.41-7.07-9.57-1.09-1.42-5.58-7.14-7.83-5.9-2,1.11-.32,5.21.5,6.53,2,3.17,5.76,5.88,8.68,8.13,1.2.92,5.57,3,8.23,4.72a128,128,0,0,0,3.39,20c-.86-1-1.74-2.06-2.47-3.06-1.84-2.54-3.6-5.14-5.18-7.84a52.87,52.87,0,0,1-5.73-13.48,2.53,2.53,0,0,0-4.83-.21l-.09.28c-1.09,3.92,1.21,7.91,3.48,11.28,1.72,2.58,11,16.6,16,17.3a136.45,136.45,0,0,0,8.45,21.67c-2.61-2.82-4.5-6.21-6.83-9.26-1.09-1.43-5.58-7.14-7.84-5.89-2,1.1-.31,5.2.51,6.52,2,3.17,5.77,5.88,8.69,8.12,1.07.83,4.69,2.58,7.35,4.17A144.89,144.89,0,0,0,589,466c-.66-.39-1.34-.77-2-1.17-3.37-2.1-6.12-5-9.24-7.49-1.41-1.11-7.18-5.53-9.05-3.75-1.65,1.56,1,5.12,2.11,6.19,2.69,2.58,7.05,4.25,10.44,5.7,1.39.59,6.15,1.51,9.16,2.51q4.17,5.73,8.85,11c-3-1.78-5.72-4.11-8.66-6.06-1.49-1-7.59-5-9.32-3-1.52,1.69,1.4,5,2.6,6,2.88,2.36,7.36,3.68,10.86,4.86,1.15.39,4.51.81,7.39,1.36,6.06,6.48,8,18.17,15,23.48C611.39,500.35,610.65,489,605.6,483.06Z"/>
        <path class="cls-21" d="M1015.3,484.88a2.45,2.45,0,0,0-1.12.35,7.76,7.76,0,0,1,2.3-1.24,184.63,184.63,0,0,0,16.26-13.65c1-1,2-2,3.07-3,0-3.36-2-10.65-2-12.74-.15-4.31-.55-9.77.84-13.91.58-1.72,3-6.29,5.52-5.32,2.81,1.11,1,9.43.52,11.47-1.05,4.52-2.8,8.9-3.34,13.52a39.76,39.76,0,0,1-.85,6.31,159.19,159.19,0,0,0,12.61-14.38c.05-3.27-1.94-10.8-2-12.93-.15-4.31-.55-9.76.85-13.9.58-1.72,3-6.29,5.51-5.32,2.81,1.1,1,9.42.53,11.46-1,4.53-2.8,8.91-3.35,13.52a40.46,40.46,0,0,1-.83,6.26,141.34,141.34,0,0,0,11.12-16.85,132.19,132.19,0,0,0,6.16-12.46c-1.45-3.38-3.89-7.77-4.38-9.34-1.27-4.12-3.09-9.29-2.82-13.64.11-1.81,1.28-6.87,3.93-6.58,3,.33,3.43,8.83,3.5,10.93.18,4.64-.37,9.32.31,13.92.13.82.28,1.64.43,2.47a134.94,134.94,0,0,0,5.91-17.76c-.84-1.3-1.47-2.79-2.19-4.18-1.83-3.52-4.55-6.49-6.75-9.79-1-1.49-5-7.59-3-9.32,1.69-1.52,5,1.39,6,2.59,2.36,2.88,3.69,7.36,4.87,10.85.43,1.26.9,5.12,1.52,8.13.7-2.86,1.33-5.73,1.84-8.63a132.41,132.41,0,0,0,1.63-13.92,27.82,27.82,0,0,1-2.85-5.1c-1.83-3.52-4.55-6.49-6.75-9.79-1-1.49-5-7.59-3-9.32,1.69-1.53,5,1.39,6,2.59,2.37,2.88,3.69,7.36,4.87,10.85.5,1.46,1,6.43,1.84,9.49a125.33,125.33,0,0,0-.34-18.68,42.16,42.16,0,0,1-2.28-4.5c-1.76-3.55-4.42-6.58-6.56-9.92-1-1.5-4.81-7.68-2.86-9.37,1.71-1.49,5,1.48,6,2.7,2.3,2.93,3.54,7.43,4.66,10.95a19.2,19.2,0,0,1,.44,2.26c.82,3.11,1.48,6.27,2,9.45a1.18,1.18,0,0,0,.2.23c-.08-.06-.12-.14-.19-.2a110.78,110.78,0,0,1,1.31,13.13c.53-1.48,1.37-2.89,2-4.32,1.7-3.59,2.42-7.55,3.72-11.3.58-1.69,3-8.53,5.58-8.05,2.23.42,1.93,4.84,1.57,6.35-.86,3.62-3.63,7.39-5.69,10.44-1,1.46-5.59,5.77-7.19,8.21a106.76,106.76,0,0,1-.35,12.39,31.8,31.8,0,0,1,3.09-4.77c2.23-3.28,3.55-7.08,5.41-10.59.83-1.59,4.32-8,6.75-7.11,2.14.76,1.17,5.09.58,6.52-1.41,3.45-4.72,6.75-7.23,9.45-1.28,1.37-7.07,5.29-8.69,7.39-.16,1.67-.34,3.35-.57,5a122.22,122.22,0,0,1-4.61,20.43c.95-.63,1.95-1.21,2.9-1.83,3.32-2.17,6-5.17,9.06-7.69,1.39-1.14,7.06-5.69,9-4,1.69,1.53-.88,5.14-2,6.24-2.64,2.64-7,4.41-10.31,5.93-1.38.63-6.11,1.65-9.09,2.72a128.25,128.25,0,0,1-7.87,18.7c1.08-.81,2.17-1.6,3.11-2.41,2.37-2.05,4.67-4.18,6.83-6.46a53,53,0,0,0,8.66-11.81,2.52,2.52,0,0,1,4.74.9,2.83,2.83,0,0,1,0,.29c.18,4.06-3,7.42-6,10.19-2.27,2.11-14.49,13.65-19.48,13.2a136.79,136.79,0,0,1-13.17,19.17c3.18-2.14,5.8-5,8.77-7.46,1.38-1.13,7.06-5.68,9-3.95,1.68,1.53-.89,5.15-2,6.24-2.64,2.64-7,4.4-10.32,5.93-1.23.55-5.16,1.43-8.11,2.37a143.46,143.46,0,0,1-13,13.18c.74-.23,1.48-.45,2.2-.69,3.76-1.27,7.11-3.51,10.7-5.18,1.63-.76,8.26-3.74,9.67-1.59,1.25,1.9-2.13,4.76-3.47,5.55-3.21,1.89-7.84,2.53-11.46,3.16-1.5.26-6.34.07-9.49.36q-5.37,4.62-11.14,8.71c3.36-1,6.51-2.69,9.82-3.93,1.67-.62,8.52-3.08,9.76-.82,1.1,2-2.5,4.58-3.89,5.26-3.35,1.64-8,1.9-11.68,2.25-1.22.12-4.59-.23-7.51-.36-7.38,4.92-11.92,15.87-20,19.43C1005.72,500.39,1009,489.49,1015.3,484.88Z"/>
        <path class="cls-22" d="M578.4,487.17s.36-14.56-11.1-15.9-4.92,17.56,0,23c0,0-8.79-9.84-13-4.77s7.67,10.87,7.67,10.87-9.54-3.24-12.17-1.05c-3.41,2.83,3.63,7.16,3.63,7.16s-10.89-4.33-8.73,3H575Z"/>
        <path class="cls-23" d="M1072.55,487.17s10.33-32.65,29.37-21.34c13.86,8.23.51,23-4.41,28.42,0,0,8.26-10.95,13-4.77,5.25,6.8-7.67,10.87-7.67,10.87s10.4-5.35,12.86-.86c3,5.51-4.32,7-4.32,7s10.89-4.33,8.73,3H1076Z"/>
      </g>
      <g>
        <polygon class="cls-24" points="1096.49 509.44 718.37 509.44 647.37 197.14 1025.51 197.14 1034.63 237.2 1042.95 273.85 1096.49 509.44"/>
        <polygon class="cls-25" points="1096.49 509.44 718.37 509.44 647.37 197.14 1025.51 197.14 1034.63 237.2 1042.95 273.85 1096.49 509.44"/>
        <polygon class="cls-26" points="947.01 509.44 568.88 509.44 639.87 197.15 1018 197.15 947.01 509.44"/>
        <polygon class="cls-27" points="1018.01 197.14 947.01 509.44 568.87 509.44 639.87 197.14 1018.01 197.14"/>
        <g>
          <g>
            <path class="cls-28" d="M668.53,210.5a5.76,5.76,0,1,1-5.76-5.76A5.76,5.76,0,0,1,668.53,210.5Z"/>
            <path class="cls-28" d="M709.21,210.5a5.76,5.76,0,1,1-5.76-5.76A5.76,5.76,0,0,1,709.21,210.5Z"/>
            <path class="cls-28" d="M749.89,210.5a5.76,5.76,0,1,1-5.76-5.76A5.76,5.76,0,0,1,749.89,210.5Z"/>
            <path class="cls-28" d="M790.57,210.5a5.76,5.76,0,1,1-5.76-5.76A5.76,5.76,0,0,1,790.57,210.5Z"/>
            <path class="cls-28" d="M831.25,210.5a5.76,5.76,0,1,1-5.76-5.76A5.76,5.76,0,0,1,831.25,210.5Z"/>
            <path class="cls-28" d="M871.93,210.5a5.76,5.76,0,1,1-5.76-5.76A5.76,5.76,0,0,1,871.93,210.5Z"/>
            <path class="cls-28" d="M912.61,210.5a5.76,5.76,0,1,1-5.76-5.76A5.76,5.76,0,0,1,912.61,210.5Z"/>
            <path class="cls-28" d="M953.29,210.5a5.76,5.76,0,1,1-5.76-5.76A5.76,5.76,0,0,1,953.29,210.5Z"/>
            <path class="cls-28" d="M994,210.5a5.76,5.76,0,1,1-5.76-5.76A5.76,5.76,0,0,1,994,210.5Z"/>
          </g>
          <g>
            <path class="cls-29" d="M681.63,187.68a11,11,0,0,0-8.33-3.78c-7.18,0-13.83,6.72-14.85,15a16,16,0,0,0,.68,7.17,12.62,12.62,0,0,0,2.54,4.46,10.72,10.72,0,0,0,5.72,3.45,5.76,5.76,0,0,0,1.14-3.39,7.42,7.42,0,0,1-4.18-2.41,9.4,9.4,0,0,1-1.88-3.4,12.79,12.79,0,0,1-.48-5.43c.81-6.52,5.88-11.85,11.31-11.85A7.41,7.41,0,0,1,679,190a10.84,10.84,0,0,1,2.46,7.1H685A14.14,14.14,0,0,0,681.63,187.68Z"/>
            <path class="cls-29" d="M722.31,187.68A11,11,0,0,0,714,183.9c-7.18,0-13.83,6.72-14.85,15a16,16,0,0,0,.68,7.17,12.47,12.47,0,0,0,2.54,4.46,10.72,10.72,0,0,0,5.72,3.45,5.76,5.76,0,0,0,1.14-3.39,7.42,7.42,0,0,1-4.18-2.41,9.4,9.4,0,0,1-1.88-3.4,12.79,12.79,0,0,1-.48-5.43c.8-6.52,5.88-11.85,11.31-11.85a7.43,7.43,0,0,1,5.67,2.57,10.9,10.9,0,0,1,2.46,7.1h3.58A14.14,14.14,0,0,0,722.31,187.68Z"/>
            <path class="cls-29" d="M763,187.68a11,11,0,0,0-8.33-3.78c-7.18,0-13.83,6.72-14.85,15a16,16,0,0,0,.68,7.17A12.47,12.47,0,0,0,743,210.5a10.73,10.73,0,0,0,5.71,3.45,5.7,5.7,0,0,0,1.15-3.39,7.42,7.42,0,0,1-4.18-2.41,9.4,9.4,0,0,1-1.88-3.4,12.64,12.64,0,0,1-.48-5.43c.8-6.52,5.88-11.85,11.31-11.85a7.39,7.39,0,0,1,5.66,2.57,10.85,10.85,0,0,1,2.47,7.1h3.57A14.13,14.13,0,0,0,763,187.68Z"/>
            <path class="cls-29" d="M803.68,187.68a11,11,0,0,0-8.33-3.78c-7.18,0-13.83,6.72-14.85,15a16,16,0,0,0,.68,7.17,12.77,12.77,0,0,0,2.54,4.46,10.75,10.75,0,0,0,5.72,3.45,5.69,5.69,0,0,0,1.14-3.39,7.45,7.45,0,0,1-4.18-2.41,9.38,9.38,0,0,1-1.87-3.4,12.63,12.63,0,0,1-.49-5.43c.81-6.52,5.88-11.85,11.31-11.85A7.41,7.41,0,0,1,801,190a10.84,10.84,0,0,1,2.46,7.1h3.58A14.14,14.14,0,0,0,803.68,187.68Z"/>
            <path class="cls-29" d="M844.35,187.68A11,11,0,0,0,836,183.9c-7.19,0-13.83,6.72-14.85,15a16,16,0,0,0,.68,7.17,12.6,12.6,0,0,0,2.53,4.46,10.75,10.75,0,0,0,5.72,3.45,5.7,5.7,0,0,0,1.15-3.39,7.48,7.48,0,0,1-4.19-2.41,9.53,9.53,0,0,1-1.87-3.4,12.48,12.48,0,0,1-.48-5.43c.8-6.52,5.88-11.85,11.31-11.85a7.41,7.41,0,0,1,5.66,2.57,10.9,10.9,0,0,1,2.47,7.1h3.57A14.09,14.09,0,0,0,844.35,187.68Z"/>
            <path class="cls-29" d="M885,187.68a11,11,0,0,0-8.33-3.78c-7.18,0-13.83,6.72-14.85,15a16,16,0,0,0,.68,7.17,12.47,12.47,0,0,0,2.54,4.46,10.72,10.72,0,0,0,5.72,3.45,5.76,5.76,0,0,0,1.14-3.39,7.42,7.42,0,0,1-4.18-2.41,9.4,9.4,0,0,1-1.88-3.4,12.79,12.79,0,0,1-.48-5.43c.8-6.52,5.88-11.85,11.31-11.85a7.43,7.43,0,0,1,5.67,2.57,10.9,10.9,0,0,1,2.46,7.1h3.58A14.14,14.14,0,0,0,885,187.68Z"/>
            <path class="cls-29" d="M925.72,187.68a11,11,0,0,0-8.33-3.78c-7.18,0-13.83,6.72-14.85,15a16,16,0,0,0,.68,7.17,12.62,12.62,0,0,0,2.54,4.46,10.72,10.72,0,0,0,5.72,3.45,5.76,5.76,0,0,0,1.14-3.39,7.42,7.42,0,0,1-4.18-2.41,9.4,9.4,0,0,1-1.88-3.4,12.79,12.79,0,0,1-.48-5.43c.8-6.52,5.88-11.85,11.31-11.85a7.41,7.41,0,0,1,5.67,2.57,10.9,10.9,0,0,1,2.46,7.1h3.58A14.14,14.14,0,0,0,925.72,187.68Z"/>
            <path class="cls-29" d="M966.4,187.68a11,11,0,0,0-8.33-3.78c-7.18,0-13.83,6.72-14.85,15a16,16,0,0,0,.68,7.17,12.47,12.47,0,0,0,2.54,4.46,10.73,10.73,0,0,0,5.71,3.45,5.7,5.7,0,0,0,1.15-3.39,7.42,7.42,0,0,1-4.18-2.41,9.4,9.4,0,0,1-1.88-3.4,12.64,12.64,0,0,1-.48-5.43c.8-6.52,5.88-11.85,11.31-11.85a7.41,7.41,0,0,1,5.66,2.57,10.85,10.85,0,0,1,2.47,7.1h3.57A14.13,14.13,0,0,0,966.4,187.68Z"/>
            <path class="cls-29" d="M1007.08,187.68a11,11,0,0,0-8.33-3.78c-7.18,0-13.83,6.72-14.85,15a16,16,0,0,0,.68,7.17,12.62,12.62,0,0,0,2.54,4.46,10.72,10.72,0,0,0,5.72,3.45,5.76,5.76,0,0,0,1.14-3.39,7.42,7.42,0,0,1-4.18-2.41,9.55,9.55,0,0,1-1.88-3.4,12.79,12.79,0,0,1-.48-5.43c.81-6.52,5.88-11.85,11.31-11.85a7.41,7.41,0,0,1,5.67,2.57,10.84,10.84,0,0,1,2.46,7.1h3.58A14.14,14.14,0,0,0,1007.08,187.68Z"/>
          </g>
        </g>
        <g>
          <g>
            <polygon class="cls-17" points="680.45 288.77 646.46 288.77 652.84 260.69 686.84 260.69 680.45 288.77"/>
            <polygon class="cls-30" points="728.02 288.77 694.02 288.77 700.4 260.69 734.4 260.69 728.02 288.77"/>
            <polygon class="cls-30" points="775.58 288.77 741.58 288.77 747.97 260.69 781.96 260.69 775.58 288.77"/>
            <polygon class="cls-17" points="870.7 288.77 789.14 288.77 795.53 260.69 877.09 260.69 870.7 288.77"/>
            <polygon class="cls-31" points="870.7 288.77 836.71 288.77 843.09 260.69 877.09 260.69 870.7 288.77"/>
            <polygon class="cls-31" points="918.27 288.77 884.27 288.77 890.65 260.69 924.65 260.69 918.27 288.77"/>
            <polygon class="cls-31" points="965.83 288.77 931.83 288.77 938.22 260.69 972.21 260.69 965.83 288.77"/>
          </g>
          <g>
            <polygon class="cls-32" points="669.52 336.84 635.53 336.84 641.91 308.76 675.91 308.76 669.52 336.84"/>
            <polygon class="cls-17" points="717.09 336.84 683.09 336.84 689.47 308.76 723.47 308.76 717.09 336.84"/>
            <polygon class="cls-17" points="764.65 336.84 730.65 336.84 737.04 308.76 771.03 308.76 764.65 336.84"/>
            <polygon class="cls-30" points="812.21 336.84 778.22 336.84 784.6 308.76 818.6 308.76 812.21 336.84"/>
            <polygon class="cls-30" points="859.78 336.84 825.78 336.84 832.16 308.76 866.16 308.76 859.78 336.84"/>
            <polygon class="cls-31" points="907.34 336.84 873.34 336.84 879.73 308.76 913.72 308.76 907.34 336.84"/>
            <polygon class="cls-31" points="954.9 336.84 920.9 336.84 927.29 308.76 961.28 308.76 954.9 336.84"/>
          </g>
          <g>
            <polygon class="cls-30" points="658.49 384.9 624.5 384.9 630.88 356.83 664.87 356.83 658.49 384.9"/>
            <polygon class="cls-32" points="706.05 384.9 672.06 384.9 678.44 356.83 712.44 356.83 706.05 384.9"/>
            <polygon class="cls-17" points="753.62 384.9 719.62 384.9 726 356.83 760 356.83 753.62 384.9"/>
            <polygon class="cls-33" points="801.18 384.9 767.18 384.9 773.57 356.83 807.56 356.83 801.18 384.9"/>
            <g class="cls-34">
              <polygon class="cls-35" points="814.12 385.4 820.73 356.33 855.75 356.33 849.14 385.4 814.12 385.4"/>
              <path class="cls-36" d="M855.12,356.83l-6.38,28.07h-34l6.38-28.07h34m1.26-1h-36l-.18.77-6.38,28.08-.28,1.22h36l.18-.78,6.38-28.07.28-1.22Z"/>
            </g>
            <polygon class="cls-31" points="896.3 384.9 862.31 384.9 868.69 356.83 902.69 356.83 896.3 384.9"/>
            <polygon class="cls-31" points="943.87 384.9 909.87 384.9 916.25 356.83 950.25 356.83 943.87 384.9"/>
          </g>
          <g>
            <g>
              <polygon class="cls-31" points="612.94 433.47 619.55 404.39 654.57 404.39 647.96 433.47 612.94 433.47"/>
              <path class="cls-36" d="M654,404.89,647.56,433h-34L620,404.89h34m1.25-1H619.15l-.18.78-6.38,28.08-.28,1.22h36.05l.18-.78,6.38-28.08.28-1.22Z"/>
            </g>
            <polygon class="cls-30" points="695.13 432.97 661.13 432.97 667.51 404.89 701.51 404.89 695.13 432.97"/>
            <polygon class="cls-30" points="742.69 432.97 708.69 432.97 715.08 404.89 749.07 404.89 742.69 432.97"/>
            <polygon class="cls-30" points="790.25 432.97 756.25 432.97 762.64 404.89 796.63 404.89 790.25 432.97"/>
            <polygon class="cls-17" points="837.81 432.97 803.82 432.97 810.2 404.89 844.2 404.89 837.81 432.97"/>
            <polygon class="cls-37" points="885.38 432.97 851.38 432.97 857.76 404.89 891.76 404.89 885.38 432.97"/>
            <polygon class="cls-31" points="932.94 432.97 898.94 432.97 905.33 404.89 939.32 404.89 932.94 432.97"/>
          </g>
          <g>
            <polygon class="cls-17" points="636.65 481.03 602.66 481.03 609.04 452.96 643.04 452.96 636.65 481.03"/>
            <polygon class="cls-30" points="684.22 481.03 650.22 481.03 656.6 452.96 690.6 452.96 684.22 481.03"/>
            <polygon class="cls-30" points="731.78 481.03 697.78 481.03 704.17 452.96 738.16 452.96 731.78 481.03"/>
            <polygon class="cls-30" points="779.34 481.03 745.35 481.03 751.73 452.96 785.73 452.96 779.34 481.03"/>
            <polygon class="cls-30" points="826.91 481.03 792.91 481.03 799.29 452.96 833.29 452.96 826.91 481.03"/>
            <g>
              <polygon class="cls-31" points="839.85 481.53 846.46 452.46 881.48 452.46 874.87 481.53 839.85 481.53"/>
              <path class="cls-36" d="M880.85,453,874.47,481h-34L846.85,453h34m1.25-1h-36l-.18.78-6.38,28.07-.28,1.22h36l.17-.78,6.39-28.07.27-1.22Z"/>
            </g>
            <polygon class="cls-37" points="922.03 481.03 888.03 481.03 894.42 452.96 928.41 452.96 922.03 481.03"/>
          </g>
        </g>
        <g>
          <polyline class="cls-38" points="644.38 320.15 652.35 332.2 670.41 312.65"/>
          <polyline class="cls-38" points="681.32 368.58 689.29 380.64 707.35 361.09"/>
        </g>
        <g>
          <line class="cls-38" x1="813.25" y1="408.48" x2="833.59" y2="428.69"/>
          <line class="cls-38" x1="809.09" y1="429.22" x2="839.23" y2="408.48"/>
        </g>
        <g>
          <polygon class="cls-39" points="840.97 373.09 829.08 384.9 848.71 384.9 840.97 373.09"/>
          <polygon class="cls-31" points="830.45 369.32 814.75 384.9 840.65 384.9 830.45 369.32"/>
          <path class="cls-37" d="M848.42,365.87a5.88,5.88,0,0,1-5.56,4.72,3.85,3.85,0,0,1-3.89-4.72,5.89,5.89,0,0,1,5.56-4.73A3.86,3.86,0,0,1,848.42,365.87Z"/>
        </g>
        <g>
          <polygon class="cls-40" points="669.6 459.48 658.24 509.44 586.04 509.44 597.39 459.48 669.6 459.48"/>
          <polygon class="cls-41" points="653.81 517.75 581.61 517.75 595.16 458.12 667.37 458.12 653.81 517.75"/>
          <polygon class="cls-37" points="622.31 492.16 590.59 492.16 596.55 465.96 628.26 465.96 622.31 492.16"/>
          <polygon class="cls-2" points="656.71 492.16 624.99 492.16 630.95 465.96 662.66 465.96 656.71 492.16"/>
          <polygon class="cls-26" points="655.23 498.57 589.03 498.57 590.02 494.25 656.23 494.25 655.23 498.57"/>
          <polygon class="cls-26" points="653.75 506.44 587.54 506.44 588.54 502.13 654.74 502.13 653.75 506.44"/>
          <polygon class="cls-26" points="651.81 514.32 585.61 514.32 586.6 510 652.8 510 651.81 514.32"/>
          <polygon class="cls-2" points="667.38 458.12 666.14 463.51 593.93 463.51 595.16 458.12 667.38 458.12"/>
          <path class="cls-42" d="M599.52,460.86a1.7,1.7,0,0,1-1.61,1.36,1.12,1.12,0,0,1-1.13-1.36,1.71,1.71,0,0,1,1.61-1.37A1.12,1.12,0,0,1,599.52,460.86Z"/>
          <path class="cls-37" d="M604.46,460.86a1.7,1.7,0,0,1-1.61,1.36,1.11,1.11,0,0,1-1.12-1.36,1.69,1.69,0,0,1,1.61-1.37A1.11,1.11,0,0,1,604.46,460.86Z"/>
          <path class="cls-37" d="M609.41,460.86a1.71,1.71,0,0,1-1.61,1.36,1.11,1.11,0,0,1-1.13-1.36,1.69,1.69,0,0,1,1.61-1.37A1.12,1.12,0,0,1,609.41,460.86Z"/>
        </g>
      </g>
      <g>
        <path class="cls-43" d="M711,528.33c0,1.71,15.72,3.1,35.12,3.1s35.11-1.39,35.11-3.1-15.72-3.09-35.11-3.09S711,526.62,711,528.33Z"/>
        <g>
          <path class="cls-44" d="M735,514.83s-.15,5.9-.26,7.41-4.9,1.61-5.46.83-.83-7.68-.83-7.68"/>
          <path class="cls-45" d="M728.05,524.4a32.33,32.33,0,0,0,.43,4.12H734l.28-.92a8.68,8.68,0,0,0,3.19.92h4.66c3.41,0,5.35-.43,5.44-1,.36-2.51-3.72-2.4-4.78-2.4-3,0-6.35-1.42-7.06-3-.53-1.12-.3-1.41-.93-1.2a1.61,1.61,0,0,0-.94.82,2.79,2.79,0,0,1-2.88,1.57,3.36,3.36,0,0,1-1.87-.9A2,2,0,0,0,728.05,524.4Z"/>
        </g>
        <g>
          <path class="cls-44" d="M754.4,513.24a44.76,44.76,0,0,1-1.68,5.4c-.66,1.36-5.15-.31-5.38-1.24s2.07-7.45,2.07-7.45"/>
          <path class="cls-45" d="M745.67,518.16c-.58,1.46-1.44,4.28-1.44,4.28l4.19,2.49.82-.62a8.09,8.09,0,0,0,2.2,2.3,17.84,17.84,0,0,0,4.14,1.72c3.82.87,6.78.45,7.08-.07,1.26-2.2-3.8-3.41-4.79-3.8a6.82,6.82,0,0,1-4.22-5.57c-.07-1.24.25-1.42-.41-1.46a1.6,1.6,0,0,0-1.18.41,2.8,2.8,0,0,1-3.26.39,3.33,3.33,0,0,1-1.4-1.52A2,2,0,0,0,745.67,518.16Z"/>
        </g>
        <path class="cls-2" d="M724.92,379.2c-2-1.46-4.14-3.11-6.2-4.82-4.68-3.93-8.86-8.21-9.38-11.32-1.14-7-.25-27.67.31-37.45,0-.59.05-1.14.08-1.66.56-9.24,5.53-13.33,8-14.83,1.27,12,4.13,39.11,4.36,40.51C722.4,351.41,724.92,379.2,724.92,379.2Z"/>
        <path class="cls-46" d="M724.93,379.2c-2-1.46-4.15-3.11-6.2-4.82-.18-7.64-2.45-18.3-5.65-31.65-3.8-16.83-1.41-19.93-1.41-19.93L719.3,324c1.27,11.88,2.65,24.71,2.81,25.66C722.41,351.41,724.93,379.2,724.93,379.2Z"/>
        <path class="cls-21" d="M743.27,442.42a185.18,185.18,0,0,1-2.37,23.47c-1,5.21-17.39,6.16-15.28,2.15,3-5.82-2.26-24.09-4.86-55.24-.38-4.72-2.5-5.26-3.9-15s3.95-18.13,3.95-18.13l22.71-2.11.29,28.29.09,9.57S744,428.58,743.27,442.42Z"/>
        <path class="cls-21" d="M727.62,464.4s-4.44,5.45-3.82,15.43,4.09,39.78,4.09,39.78,5.22.77,7.9-.22c0,0,5.62-55.26,5.64-61.54S727.62,464.4,727.62,464.4Z"/>
        <path class="cls-47" d="M743.27,442.42c-1.44-4.6-4.27-13.4-6.6-18.36-3.26-6.95-6.44-10-6.44-10-11.52-12.09-3.6-27.73-3.6-27.73s9.39,7.78,10,8.58,4.37,7.36,7.14,11l.09,9.57S744,428.58,743.27,442.42Z"/>
        <path class="cls-21" d="M770.2,438.69s5.15,16.95,4.33,22.27-19.65,55-19.65,55a19,19,0,0,1-7.56-1.87s.41-21.88,4.1-35.57,8-22.07,11.67-23.29S769.18,441.54,770.2,438.69Z"/>
        <path class="cls-21" d="M753.55,448.76s5.58,8.9,2.15,16.88,5.75,6.66,5.75,6.66,4.6-13.39,3.58-15.12-4.8-7.56-6-7.87A52.52,52.52,0,0,0,753.55,448.76Z"/>
        <path class="cls-21" d="M759.18,378.05s12,55.32,13.51,70.23c.66,6.32-6,16.76-12.11,11-7.32-6.82-19.17-38.05-22.84-43.57s-17.44-10.57-8-38.57"/>
        <path class="cls-44" d="M729.68,303.74s1.63-5.54.92-9.62-3.17-11.44-2.25-17,7.87-10.12,15.22-9.4,9.51,7.76,10.73,11.85,1,10.32.72,13.69-2.15,6-3.38,6.74-5.83-.22-6.64.66-1.43,6.09-1.43,6.09"/>
        <path class="cls-48" d="M726.21,308.11s.4-3.22,1.63-4.37,9.4-1.14,11.85-.84,8.5,3.13,9.3,3.73-.78,3.69-.78,3.69Z"/>
        <g>
          <rect class="cls-2" x="767.13" y="259.02" width="92.57" height="24.71" rx="0.89" transform="translate(123.47 -237.81) rotate(17.98)"/>
          <rect class="cls-33" x="771.57" y="251.94" width="23.6" height="19.37" rx="0.63" transform="translate(119 -229.02) rotate(17.98)"/>
          <polygon class="cls-26" points="829.24 269.23 799.24 259.54 800.11 256.87 830.11 266.56 829.24 269.23"/>
          <rect class="cls-26" x="797.06" y="269.18" width="54.61" height="2.81" transform="translate(123.87 -241.38) rotate(17.99)"/>
          <rect class="cls-26" x="795.96" y="271.98" width="47.15" height="2.81" transform="translate(124.74 -240.08) rotate(18.02)"/>
          <rect class="cls-26" x="794.42" y="277.61" width="58.34" height="2.81" transform="translate(126.04 -240.19) rotate(17.95)"/>
          <rect class="cls-26" x="793.09" y="281.87" width="60.32" height="2.81" transform="translate(127.63 -240.26) rotate(17.98)"/>
        </g>
        <path class="cls-44" d="M811.63,276.05c-.06-.58-.81-.3-1,.18,0,.06-.06.21-.11.41.08-.95.13-1.73.11-1.92-.06-.55-.75-.35-1,.08,0-.39,0-.68,0-.8-.06-.71-.82-.42-1,.16a7.09,7.09,0,0,0-.18,1c0-.26,0-.45,0-.54-.06-.58-.73-.43-.92,0a7,7,0,0,0-.21,1.13c-.09.58-.26,1.2-.35,1.79a12.3,12.3,0,0,1-.37,1.65,7.25,7.25,0,0,1-2.68,2.08l-1.66-.54a17.54,17.54,0,0,0-.32,3.37c.11.85.73,1.93.66,2.45a12.64,12.64,0,0,1-.66,1.89l4.4,1.82a11.39,11.39,0,0,1,1.17-3.23,35.69,35.69,0,0,0,3-3.61,22.53,22.53,0,0,0,.66-2.18l.31-1.64.14-1.6S811.64,276.24,811.63,276.05Z"/>
        <path class="cls-2" d="M807.12,289.3s-1.48,8.59-2.94,15.47a67.3,67.3,0,0,1-5.13,15.85s0,.09,0,.13c-1.45,3.14-4.14,7-6,7.38s-8.29,0-8.29,0c-4,.24-14.06-1.09-22.62-2.23l-.39-.05c-4-.54-7.63-1-10.13-1.29a5.29,5.29,0,0,1-3.1-1.38,4.72,4.72,0,0,1-1.5-2.59s0,0,0,0c-.57-2.77,1.26-5,3.61-6.61.11-.09.24-.15.34-.22-2.91-2.89-5.89-6.06-5.89-6.06s8.22.4,12.81.7c3.13.21,24.46,5.92,27,6.72l.55.2a7.15,7.15,0,0,1,.81.14c.14,0,.32.11.5.16a25.59,25.59,0,0,1,3.11-5.84c4.57-6.44,12-22,12-22l4.15,1.23,0,0,0,0Z"/>
        <path class="cls-49" d="M730,296.77s10.21.87,12.15,0,4.75-2.75,5-6.23-.46-4.54.87-6.49,2.5-1.27,2.71.57.28,5.16.76,5.4c.65.33,1.43-2,1.18-5.56a22.09,22.09,0,0,0-1.49-7.51c-.91-2-1.41-1.92-2.24-2.29.89-.44,1.86-.49,3.62-3.25,2.05-3.19.92-8.17-4.49-8.15-9.46,0-19.51,1.89-19.72,8.89,0,0-3.32-.51-3.42,5.88s4,14.1,4.29,16.09S729,296.31,730,296.77Z"/>
        <path class="cls-2" d="M758.38,371.84c.38,3.2,3.18,8.15,1.27,8.84-.77.27-3.9.09-7.72-.23h-.11l-.18,0c-3.39-.28-7.27-.66-10.52-.91-13-.55-19.62,2-20.93,1.31-.62-.38-.64-1.5-.44-2.67a30.29,30.29,0,0,0,.21-8.61c-.32-2.41-.77-5.29-1.39-8.58-2.15-11.38-6.35-28.77-7-39.22-1-16.39,16.55-14.83,16.55-14.83,22.33-1.4,32.82,5,34,14.63.09.68.14,1.42.19,2.18.58,9.9-2.44,25.88-3.87,37.82A59,59,0,0,0,758.38,371.84Z"/>
        <path class="cls-46" d="M758.38,371.84c.38,3.2,3.18,8.15,1.27,8.84-.77.27-3.9.09-7.72-.23,3.45.25,4.09-2.39,3.32-4.16A25.49,25.49,0,0,1,753,365.71c.16-4.75,2-15.48,3-25.61a82.94,82.94,0,0,0,0-17.76c.53,1.07,2.07,2.57,6.4,3.57.08,10-2.63,24.54-4,35.64A59,59,0,0,0,758.38,371.84Z"/>
      </g>
      <g>
        <g>
          <path class="cls-44" d="M890.07,308.42l-2.62-1.63a3.56,3.56,0,0,0-1.43-.44,18.51,18.51,0,0,1-2.71-.46c-2.23-.55-3.76-2.24-4.91-3.15s.54-1.51,2.48-.6.71.73,1.92.66-.09-1.84-1.22-3.12a25.69,25.69,0,0,1-2-2.61c-1-1.39-2-2.46-2.56-3.35-.38-.62-.56-1.43.17-1.23s4,3.28,4.81,3.79,2-.48,4.22.73,3.21,4.83,3.93,6,4.92,3,4.92,3"/>
          <path class="cls-2" d="M959.56,321.22a4.62,4.62,0,0,1-1.48,2.54,5.2,5.2,0,0,1-3,1.36c-3,.31-7.53.94-12.36,1.58-7.76,1-16.22,2.11-19.77,1.91-.81,0-4.08.07-6.29-.87a.8.8,0,0,1-.2-.07l0,0c-.53-.47-.55-1.71-.39-3s.5-2.73.54-3.08a6.05,6.05,0,0,1,4.89-5.29,5.51,5.51,0,0,1,.81-.16l.55-.18c7.28-2.31,15.51-2.88,20.81-3.77a17.67,17.67,0,0,1,7.66.39,15.79,15.79,0,0,1,4.74,2.22C958.33,316.39,960.12,318.54,959.56,321.22Z"/>
          <path class="cls-2" d="M923.91,324.7a5.39,5.39,0,0,1-.74,1.37c-.15.18-.3.34-.44.49-1.89,1.83-4.84,1.49-5.38,1.41h0l-.66-.23-.23-.1c-4.66-2-14.52-9.2-21.26-14.35,0,0-.06,0-.06,0-4-3.1-6.94-5.43-6.94-5.43l.6-.92,2.39-3.51s15,7.08,22.07,9.56a46,46,0,0,1,8.24,3.36,7.13,7.13,0,0,1,.76.5S925.43,320.45,923.91,324.7Z"/>
          <path class="cls-46" d="M942.73,326.7c-7.76,1-16.22,2.11-19.77,1.91-.81,0-4.08.07-6.29-.87a.8.8,0,0,1-.2-.07l0,0c-4.66-2-14.52-9.2-21.26-14.35,1,.58,13.74,8,20.87,11.39a24.31,24.31,0,0,0,4,1.64,15.41,15.41,0,0,0,2.65.24h.4a19.17,19.17,0,0,0,16.06-9.16,33.8,33.8,0,0,1,3.15-4.32S942.58,321.05,942.73,326.7Z"/>
        </g>
        <g>
          <path class="cls-2" d="M974.19,354.56a20.31,20.31,0,0,0-.91,11.72c1.73,7.76-.24,8.28-.24,8.28s-10.52,6.69-19.28,9.42c-6.27,1.95-11.62,1.62-11.47-5.31v-.09c0-.42,0-.83,0-1.22.3-15.57-3-16.36-3.75-33.8-.83-17.89-.65-28.48,5.08-31.36,6.24-3.15,14.83-5.31,27-2.43,9.14,2.16,12.16,4.58,12.08,11.35a53.21,53.21,0,0,1-1,8.34C980.25,338,976.64,348.2,974.19,354.56Z"/>
          <path class="cls-46" d="M974.19,354.56a20.31,20.31,0,0,0-.91,11.72c1.73,7.76-.24,8.28-.24,8.28s-10.52,6.69-19.28,9.42l-8.18-.78-3.28-2.57v-2.05c0-.42,0-.83,0-1.22a60.35,60.35,0,0,0,12.36-.32,51,51,0,0,0,12.11-3,4.71,4.71,0,0,0,3-5.24,67.31,67.31,0,0,1-1.13-10.86c0-3.43,1.61-9.23,2.91-13.41a27.19,27.19,0,0,0,1.09-9.91,88.45,88.45,0,0,1,0-11.29l6.49-3.51,3.61,1.34a53.21,53.21,0,0,1-1,8.34C980.25,338,976.64,348.2,974.19,354.56Z"/>
          <g>
            <path class="cls-50" d="M946.48,283.45A15.34,15.34,0,0,1,943,272.54c.35-3.75,5.11-1,5.11-1s-3.17-5.23,2-7.79,13.76,5.33,13.76,5.33,9.5.81,10.22,15l-11.5-2.57Z"/>
            <path class="cls-44" d="M972,288.36c-.22,8.77-7.78,13.85-7.78,13.85l.5,8-5.1,3.3-3.5,2.27-2-4.2-.27-5.14a2.67,2.67,0,0,0-2.11-2.45,9.67,9.67,0,0,1-5-3,3.3,3.3,0,0,1-.32-.4h0c-3.32-4.52-4.57-21.81,6.78-26.72C965,268.76,972.27,279.59,972,288.36Z"/>
            <path class="cls-51" d="M959.32,308.71l.34,4.78-3.5,2.27-2-4.2-.27-5.14a2.67,2.67,0,0,0-2.11-2.45,9.67,9.67,0,0,1-5-3,3.3,3.3,0,0,1-.32-.4,18.64,18.64,0,0,0,7.14,2.21A6.44,6.44,0,0,1,959.32,308.71Z"/>
            <path class="cls-50" d="M959.8,291.07c.45.18.87-.51.87-.51s2.46-5.52,3.31-6.37c1.51-1.53,5.08-1.39,5.36,3.35.22,3.67-4.11,11.49-5.44,13.79a.88.88,0,0,0,.22,1.11,1.08,1.08,0,0,0,.48.18h.06a.86.86,0,0,0,.57-.2c2.8-2.46,15.14-14.3,5.34-25.43,0,0-7.78.5-9,4.25a79.13,79.13,0,0,0-2,8.86S959.34,290.86,959.8,291.07Z"/>
          </g>
          <path class="cls-21" d="M952.1,316.25s-9.49,31.1-7.59,46l3.5,6.36,3.82-6.94s-3.11-29.79,2.84-44.91Z"/>
          <path class="cls-47" d="M951.44,313.6l0,.41a8.27,8.27,0,0,0,.61,2.24h0l2.57.52,2.24-1.66-2.57-3-.4.1a5.61,5.61,0,0,0-2.46,1.34Z"/>
          <path class="cls-46" d="M964.7,306.47a8.25,8.25,0,0,1,2.46,2.53,31.81,31.81,0,0,0-3.15,1.65c-1.34.82-7.78,5.36-7.78,5.36l-1.89-3.88S961.06,307.49,964.7,306.47Z"/>
          <path class="cls-46" d="M954.34,312.13a5.37,5.37,0,0,0-2.94,2.45s-1.16-2.21.32-6.14a9.92,9.92,0,0,1,2.18-1.58Z"/>
        </g>
        <path class="cls-43" d="M917.86,528.33c0,1.71,22.49,3.1,50.23,3.1s50.24-1.39,50.24-3.1-22.49-3.09-50.24-3.09S917.86,526.62,917.86,528.33Z"/>
        <g>
          <path class="cls-44" d="M944.31,518.45a11.23,11.23,0,0,0-.78,3.79c.12,1.5,4.91,1.61,5.46.83s.84-7.68.84-7.68"/>
          <path class="cls-45" d="M950.26,524.4a31.62,31.62,0,0,1-.44,4.12H944.3l-.27-.92a8.68,8.68,0,0,1-3.19.92h-4.66c-3.42,0-5.35-.43-5.44-1-.36-2.51,3.72-2.4,4.78-2.4,3,0,6.34-1.42,7.06-3,.52-1.12.29-1.41.92-1.2a1.62,1.62,0,0,1,1,.82,2.79,2.79,0,0,0,2.88,1.57,3.3,3.3,0,0,0,1.86-.9A2,2,0,0,1,950.26,524.4Z"/>
        </g>
        <g>
          <path class="cls-44" d="M998,513.24a44.76,44.76,0,0,0,1.68,5.4c.66,1.36,5.15-.31,5.38-1.24S1003,510,1003,510"/>
          <path class="cls-45" d="M1006.75,518.16c.59,1.46,1.45,4.28,1.45,4.28l-4.19,2.49-.82-.62a8.09,8.09,0,0,1-2.2,2.3,17.84,17.84,0,0,1-4.14,1.72c-3.83.87-6.78.45-7.08-.07-1.27-2.2,3.8-3.41,4.79-3.8a6.84,6.84,0,0,0,4.22-5.57c.07-1.24-.25-1.42.41-1.46a1.61,1.61,0,0,1,1.18.41,2.79,2.79,0,0,0,3.26.39,3.33,3.33,0,0,0,1.4-1.52A2,2,0,0,1,1006.75,518.16Z"/>
        </g>
        <g>
          <path class="cls-21" d="M978.63,405.57s7.5-18-5.59-31c0,0-11.16,5-20.1,5.61a44.36,44.36,0,0,1-10.62-.26s-1.58,13.07-.71,33.57Z"/>
          <path class="cls-21" d="M950.49,520.18c-.23,0-.46,0-.67,0a37.69,37.69,0,0,1-7.3-.5v-1.34c.25-20.57-2.23-54.18-2.72-64.8a12.08,12.08,0,0,1,.06-2c.81-7.78,8.85-6.76,12.23.38a28.45,28.45,0,0,1,1.9,5.5,49.55,49.55,0,0,1,1.25,7.76C956.81,482.92,951.86,506.93,950.49,520.18Z"/>
          <path class="cls-21" d="M964.42,413.86c0,.21-.08.43-.13.66-1.78,9.36-7.55,34.66-10.3,42.87v0c-.4,1.15-1.77,2.12-3.54,2.59-4,1.1-10.07-.41-10.59-8.47a20.64,20.64,0,0,1,0-2.92c.53-6.54,2-42.72,2.26-46.21s.91-8.59,2.75-9.24C954.11,390,966.83,400.76,964.42,413.86Z"/>
          <path class="cls-47" d="M955.24,465.17c1.57,17.75-3.38,41.76-4.75,55-.23,0-.46,0-.67,0,0,0,1.15-21,3-35.55a57.72,57.72,0,0,0-2.4-24.65c-.37-1.14-.63-1.75-.63-1.75l2.27-6.34c2.52-8.24,2.58-27.48,2.58-27.48-6.14-13.55-7-30.6-7-30.6l5.26.72,9.41,11.29,1.95,8.68c-1.78,9.36-7.55,34.66-10.3,42.87v0A49.55,49.55,0,0,1,955.24,465.17Z"/>
          <path class="cls-47" d="M955.84,451.1a45.15,45.15,0,0,0-.6,14.07c1,6.95-3.33-6.12-3.33-6.12l2.29-4.71Z"/>
          <path class="cls-21" d="M982.75,451.39c-6.23-5.86-14.89-3.09-10.85,6,4.33,9.73,17.71,36.71,25,56l.5,1.25a38.85,38.85,0,0,0,7.59-2.46c-3.45-12.48-6-34-13.13-49A40.7,40.7,0,0,0,982.75,451.39Z"/>
          <path class="cls-21" d="M947.67,393.83c-1.21-14.46,16.81-4.86,25.46-.08,3.64,2,5,6,5.46,9.82s5.16,42.75,6.1,49.87c2.11,16-11.89,7.26-13.21,2.82C968.14,445,948.33,401.71,947.67,393.83Z"/>
          <path class="cls-21" d="M983.45,443.5s.57,7.67,7,17.13c0,0-10.54-4.87-11.05-5.59s-2.36-8.14-2.15-8.93S983.45,443.5,983.45,443.5Z"/>
        </g>
        <g>
          <rect class="cls-52" x="963.23" y="342.91" width="53.88" height="44.05"/>
          <rect class="cls-53" x="965.87" y="353.16" width="24.59" height="20.96"/>
          <rect class="cls-54" x="965.87" y="353.16" width="24.59" height="2.64"/>
          <rect class="cls-55" x="965.87" y="348.58" width="48.6" height="2.64"/>
          <rect class="cls-55" x="993.08" y="353.16" width="21.39" height="2.64"/>
          <rect class="cls-55" x="993.08" y="357.74" width="21.39" height="2.64"/>
          <rect class="cls-55" x="993.08" y="362.32" width="21.39" height="2.64"/>
          <rect class="cls-55" x="993.08" y="366.91" width="21.39" height="2.64"/>
          <rect class="cls-55" x="993.08" y="371.49" width="21.39" height="2.64"/>
          <rect class="cls-55" x="965.87" y="376.07" width="48.6" height="2.64"/>
          <rect class="cls-55" x="965.87" y="380.65" width="48.6" height="2.64"/>
          <rect class="cls-55" x="963.23" y="342.91" width="53.88" height="3.8"/>
          <path class="cls-56" d="M967.54,344.83a1.1,1.1,0,1,1-1.1-1.1A1.09,1.09,0,0,1,967.54,344.83Z"/>
          <path class="cls-57" d="M971.47,344.83a1.1,1.1,0,1,1-1.1-1.1A1.09,1.09,0,0,1,971.47,344.83Z"/>
          <path class="cls-57" d="M975.4,344.83a1.1,1.1,0,1,1-1.09-1.1A1.09,1.09,0,0,1,975.4,344.83Z"/>
        </g>
        <g>
          <path class="cls-44" d="M994.94,380.28l-4.85-.31a8.5,8.5,0,0,1-.49,2.91c-.12.16-.53.27-.69.38A6.65,6.65,0,0,0,987,385.8c-.48.84-1.2,1.82-1,2.14s1,.4,1.46,0a1.69,1.69,0,0,0,.21-.23,1.86,1.86,0,0,0,.28.26c.66.48,6.65,2.45,6.3-4.2A10.63,10.63,0,0,1,994.94,380.28Z"/>
          <path class="cls-2" d="M1000.39,348.85a.06.06,0,0,1,0,0c-.15.58-1,1.05-1.93,1.42-1.44.56-3.22.92-3.6,1.06a6.09,6.09,0,0,1-6.91-2.15,7.36,7.36,0,0,1-.47-.64l-.4-.41c-5.22-5.56-9.29-12.74-12.4-17.13a17.69,17.69,0,0,1-3-7.08,16.1,16.1,0,0,1-.05-5.23c.44-2.74,1.6-5.28,4.27-5.94h0a4.62,4.62,0,0,1,2.9.22,5.21,5.21,0,0,1,2.5,2.12c4.08,6.6,14.84,22.13,17.06,27.47C998.74,343.36,1000.33,346.43,1000.39,348.85Z"/>
          <path class="cls-2" d="M998.53,368.16c-1.55,6.64-3.8,14.79-3.8,14.79l-1.08-.15h0l-4.2-.63s-.08-16.73-1.44-24.26a25.86,25.86,0,0,1,0-8.69c0-.3.1-.59.15-.87,0,0,1.91-4.44,6.38-4.93a5.27,5.27,0,0,1,1.56.08,2.56,2.56,0,0,1,.34.1c2.68.79,3.71,3.78,3.89,4.35,0,.3.1.63.12.94C1001.17,355.35,1000,362,998.53,368.16Z"/>
          <path class="cls-46" d="M998.53,368.16c-1.55,6.64-3.8,14.79-3.8,14.79l-1.08-.15c1-5.32,5-27,4.8-32.49a5.31,5.31,0,0,0-.06-.79,21.53,21.53,0,0,0-2-5.92,38.31,38.31,0,0,0-3.14-5.05c-2.73-3.84-15.24-22.24-17-24.67a1.14,1.14,0,0,1-.3-1.09,4.62,4.62,0,0,1,2.9.22,5.21,5.21,0,0,1,2.5,2.12c4.08,6.6,14.84,22.13,17.06,27.47.32.76,1.91,3.83,2,6.25a.06.06,0,0,1,0,0C1001.17,355.35,1000,362,998.53,368.16Z"/>
        </g>
        <path class="cls-2" d="M919.93,315.48s1.16.84,4.57,0-.18,3.33-.18,3.33l-5.37-.34-.45-1.38Z"/>
        <path class="cls-50" d="M945.08,277.68s11.53-2.3,17,4.68l8.06-3.78s-2.15-2.49-2.48-2.71-2.17-2.32-3.29-2.79-5.84-2-6.44-2.09a12.88,12.88,0,0,0-3.78,0,9.65,9.65,0,0,0-2.95,1c-.76.37-2.94,1.74-2.94,1.74Z"/>
      </g>
      <g>
        <path class="cls-40" d="M709.51,282.75l-7.38-2.3a5.88,5.88,0,0,1-5.87,5.66H636.17a5.89,5.89,0,0,1-5.88-5.89V255.33a5.88,5.88,0,0,1,5.88-5.88h60.09a5.88,5.88,0,0,1,5.88,5.88v19.33Z"/>
        <rect class="cls-2" x="629.28" y="246.47" width="71.19" height="36.66" rx="3.69"/>
        <polyline class="cls-2" points="697.99 268.97 707.84 279.77 695.46 275.93"/>
        <g>
          <rect class="cls-58" x="658.67" y="270.88" width="26.42" height="3.49"/>
          <rect class="cls-58" x="658.67" y="265.66" width="36.25" height="3.49"/>
          <rect class="cls-58" x="658.67" y="260.45" width="36.25" height="3.49"/>
          <rect class="cls-58" x="658.67" y="255.24" width="21.23" height="3.49"/>
          <rect class="cls-58" x="634.16" y="255.24" width="20.48" height="19.13" rx="1.33"/>
        </g>
      </g>
      <g>
        <path class="cls-40" d="M1043,273.85h-51.8a5.87,5.87,0,0,1-5.88-5.64l-7.38,2.28,7.36-8.07V243.08a5.89,5.89,0,0,1,5.9-5.88h43.48Z"/>
        <rect class="cls-2" x="986.94" y="234.22" width="71.19" height="36.66" rx="3.69" transform="translate(2045.06 505.1) rotate(180)"/>
        <polyline class="cls-2" points="989.41 256.71 979.56 267.52 991.95 263.67"/>
        <g>
          <rect class="cls-58" x="1016.99" y="258.63" width="36.25" height="3.49"/>
          <rect class="cls-58" x="1016.99" y="253.41" width="14.7" height="3.49"/>
          <rect class="cls-58" x="1016.99" y="248.2" width="36.25" height="3.49"/>
          <rect class="cls-58" x="1016.99" y="242.98" width="30.83" height="3.49"/>
          <rect class="cls-58" x="992.48" y="242.98" width="20.48" height="19.13" rx="1.33"/>
        </g>
      </g>
    </g>
  </g>
</svg>
