<?xml version="1.0" encoding="utf-8"?>
<!-- Generator: Adobe Illustrator 23.0.3, SVG Export Plug-In . SVG Version: 6.00 Build 0)  -->
<svg version="1.1" id="Capa_1" xmlns="http://www.w3.org/2000/svg" xmlns:xlink="http://www.w3.org/1999/xlink" x="0px" y="0px"
	 viewBox="0 0 589.6 589.6" style="enable-background:new 0 0 589.6 589.6;" xml:space="preserve">
<style type="text/css">
	.st0{fill:none;stroke:#676B71;stroke-width:40;stroke-miterlimit:10;}
	.st1{fill:#676B71;stroke:#676B71;stroke-width:12;stroke-miterlimit:10;}
</style>
<g>
	<path class="st0" d="M299.9,46.3c-139.8,0-253.1,113.3-253.1,253.1s113.3,253.1,253.1,253.1c139.8,0,253.1-113.3,253.1-253.1
		c0-0.1,0-0.2,0-0.2c0-139.7-113.2-252.9-252.9-252.9C300.1,46.3,300,46.3,299.9,46.3z"/>
	<path class="st1" d="M427,303.7c-1.7,7.5-8.5,12.7-16.2,12.4h-81.4c-3.2,0.2-6.4,0.2-9.5,0c-3.3,0-4.3,0-4.3,4.5
		c0,23.8,0,45.7,0,68.6c0,8.1,0,16.4,0,23.8c-0.3,6.8-5.2,12.5-11.9,13.8c-6.8,1.4-13.8-1.7-17.4-7.6c-1.5-3.3-2.2-6.9-2.1-10.5
		c0-29.5,0-58.8,0-88.3c0-4.3-1.2-5-5.2-5h-90.2c-8.8-0.1-15.9-7.3-15.8-16.1c0-4.2,1.8-8.3,4.8-11.3c3-2.5,6.8-3.7,10.7-3.6h45.2
		c15,0,30,0,45,0c4.3,0,5-1.4,5-5.2c0-29.8,0-59.5,0-89.3c-0.9-8.6,5.4-16.3,14.1-17.2c1.2-0.1,2.4-0.1,3.5,0
		c7.1,0.6,12.8,6,13.8,13.1c0.2,2.3,0.2,4.6,0,6.9c0,28.6,0,57.1,0,86c0,4,0,5.7,5.5,5.7c30,0,60,0,89.8,0c8.6-0.8,16.3,5.6,17,14.3
		C427.6,300.3,427.4,302,427,303.7z"/>
</g>
</svg>
