<?xml version="1.0" encoding="utf-8"?>
<!-- Generator: Adobe Illustrator 23.0.3, SVG Export Plug-In . SVG Version: 6.00 Build 0)  -->
<svg version="1.1" id="Layer_1" xmlns="http://www.w3.org/2000/svg" xmlns:xlink="http://www.w3.org/1999/xlink" x="0px" y="0px"
	 viewBox="0 0 3.8 4.1" style="enable-background:new 0 0 3.8 4.1;" xml:space="preserve">
<style type="text/css">
	.st0{clip-path:url(#SVGID_2_);fill:#FFFFFF;}
</style>
<g>
	<g>
		<defs>
			<rect id="SVGID_1_" y="0.1" width="3.8" height="3.8"/>
		</defs>
		<clipPath id="SVGID_2_">
			<use xlink:href="#SVGID_1_"  style="overflow:visible;"/>
		</clipPath>
		<path class="st0" d="M1.9,0.1C0.8,0.1,0,1,0,2c0,1,0.8,1.9,1.9,1.9c1,0,1.9-0.8,1.9-1.9C3.8,1,2.9,0.1,1.9,0.1L1.9,0.1z M1.9,2.9
			H1.1c0-0.6,0.5-0.6,0.6-0.7l0-0.1C1.6,2,1.5,1.8,1.5,1.6C1.5,1.3,1.6,1,1.9,1s0.4,0.2,0.4,0.6c0,0.2-0.1,0.4-0.3,0.5l0,0.1
			c0.1,0.1,0.6,0.2,0.6,0.7H1.9z M1.9,2.9"/>
	</g>
</g>
</svg>
